<svg xmlns="http://www.w3.org/2000/svg" xmlns:xlink="http://www.w3.org/1999/xlink" fill="none" version="1.1" width="88" height="88" viewBox="0 0 88 88.003173828125"><g><g><path d="M72.25323898315429,44.00149742584229Q72.25323898315429,44.695097425842285,72.2191389831543,45.38789742584228Q72.1851389831543,46.08069742584229,72.11713898315429,46.77099742584228Q72.04913898315431,47.46129742584229,71.9473389831543,48.147397425842286Q71.84563898315429,48.83349742584228,71.71033898315429,49.513797425842284Q71.5749389831543,50.19409742584229,71.40643898315429,50.86689742584228Q71.2379389831543,51.539697425842284,71.03663898315429,52.203497425842286Q70.8352389831543,52.867197425842285,70.6015389831543,53.52029742584229Q70.36793898315429,54.17339742584228,70.10253898315429,54.81419742584229Q69.83703898315429,55.454997425842286,69.5405389831543,56.08199742584228Q69.2439389831543,56.708997425842284,68.9170389831543,57.32079742584229Q68.5900389831543,57.932497425842286,68.23343898315429,58.52739742584229Q67.8769389831543,59.122297425842284,67.4915389831543,59.69909742584228Q67.1062389831543,60.275797425842285,66.6930389831543,60.83289742584228Q66.2799389831543,61.38999742584229,65.8399389831543,61.92619742584228Q65.3998389831543,62.46239742584228,64.9341389831543,62.97629742584228Q64.4683389831543,63.49019742584228,63.9778389831543,63.98069742584229Q63.4874389831543,64.47119742584229,62.9735389831543,64.93699742584229Q62.459538983154296,65.4027974258423,61.9234389831543,65.84279742584229Q61.3872389831543,66.28279742584229,60.8301389831543,66.69599742584228Q60.273038983154294,67.10919742584228,59.6963389831543,67.49459742584229Q59.119638983154296,67.87989742584229,58.5247389831543,68.23649742584229Q57.9298389831543,68.59309742584229,57.3181389831543,68.92009742584229Q56.7064389831543,69.2469974258423,56.0794389831543,69.54359742584228Q55.452438983154295,69.84009742584229,54.811638983154296,70.10559742584229Q54.170938983154294,70.37099742584229,53.5178389831543,70.60469742584229Q52.8648389831543,70.83839742584229,52.2010389831543,71.03969742584229Q51.5373389831543,71.24109742584228,50.8645389831543,71.40959742584229Q50.191738983154295,71.57809742584229,49.5114389831543,71.71339742584229Q48.8312389831543,71.84879742584229,48.1451389831543,71.95049742584229Q47.4590389831543,72.05229742584228,46.768838983154296,72.1202974258423Q46.078538983154296,72.18829742584228,45.3858389831543,72.22229742584229Q44.693038983154295,72.2563974258423,43.99943898315429,72.2563974258423Q43.305838983154295,72.2563974258423,42.6131389831543,72.22229742584229Q41.920338983154295,72.18829742584228,41.2301389831543,72.1202974258423Q40.5398389831543,72.05229742584228,39.8537389831543,71.95049742584229Q39.167738983154294,71.84879742584229,38.4874389831543,71.71339742584229Q37.807138983154296,71.57809742584229,37.134338983154294,71.40959742584229Q36.4615389831543,71.24109742584228,35.79783898315429,71.03969742584229Q35.1341389831543,70.83839742584229,34.48103898315429,70.60469742584229Q33.8280389831543,70.37099742584229,33.1872389831543,70.10559742584229Q32.546438983154296,69.84009742584229,31.919438983154297,69.54359742584228Q31.292438983154298,69.2469974258423,30.6807389831543,68.92009742584229Q30.069038983154297,68.59309742584229,29.474138983154297,68.23649742584229Q28.879238983154295,67.87989742584229,28.3025389831543,67.49459742584229Q27.725838983154297,67.10919742584228,27.1687389831543,66.69599742584228Q26.611638983154297,66.28279742584229,26.075538983154296,65.84279742584229Q25.539338983154295,65.4027974258423,25.025418983154296,64.93699742584229Q24.511508983154297,64.47119742584229,24.021058983154298,63.98069742584229Q23.530618983154298,63.49019742584228,23.064838983154296,62.97629742584228Q22.599048983154297,62.46239742584228,22.159038983154296,61.92619742584228Q21.719028983154296,61.38999742584229,21.305858983154298,60.83289742584228Q20.892688983154297,60.275797425842285,20.507348983154298,59.69909742584228Q20.122008983154295,59.122297425842284,19.765438983154297,58.52739742584229Q19.408858983154296,57.932497425842286,19.081898983154296,57.32079742584229Q18.754948983154296,56.708997425842284,18.458398983154297,56.08199742584228Q18.161848983154297,55.454997425842286,17.896428983154298,54.81419742584229Q17.630998983154296,54.17339742584228,17.397338983154295,53.52029742584229Q17.163668983154295,52.867197425842285,16.962338983154297,52.203497425842286Q16.7609989831543,51.539697425842284,16.592467983154297,50.86689742584228Q16.423938983154297,50.19409742584229,16.288625983154297,49.513797425842284Q16.1533139831543,48.83349742584228,16.051542983154295,48.147397425842286Q15.949771983154298,47.46129742584229,15.881787983154297,46.77099742584228Q15.813804683154297,46.08069742584229,15.779771883154297,45.38789742584228Q15.745738983154297,44.695097425842285,15.745738983154297,44.00149742584229Q15.745738983154297,43.307897425842285,15.779771883154297,42.615097425842286Q15.813804683154297,41.92229742584229,15.881787983154297,41.232097425842284Q15.949771983154298,40.54179742584229,16.051542983154295,39.85569742584229Q16.1533139831543,39.169597425842284,16.288625983154297,38.48929742584228Q16.423938983154297,37.808997425842286,16.592467983154297,37.13619742584228Q16.7609989831543,36.463297425842285,16.962338983154297,35.799597425842286Q17.163668983154295,35.135797425842284,17.397338983154295,34.482797425842286Q17.630998983154296,33.829697425842284,17.896428983154298,33.188897425842285Q18.161848983154297,32.548097425842286,18.458398983154297,31.920997425842284Q18.754948983154296,31.293997425842285,19.081898983154296,30.682297425842286Q19.408858983154296,30.070597425842287,19.765438983154297,29.475597425842285Q20.122008983154295,28.880697425842285,20.507348983154298,28.303997425842283Q20.892688983154297,27.727297425842288,21.305858983154298,27.170097425842286Q21.719028983154296,26.612997425842288,22.159038983154296,26.076897425842283Q22.599048983154297,25.540677425842283,23.064838983154296,25.026737425842285Q23.530618983154298,24.512807425842283,24.021058983154298,24.022347425842284Q24.511508983154297,23.531887425842285,25.025418983154296,23.066077425842284Q25.539338983154295,22.600277425842286,26.075538983154296,22.160247425842286Q26.611638983154297,21.720217425842286,27.1687389831543,21.307037425842285Q27.725838983154297,20.893847425842285,28.3025389831543,20.508497425842286Q28.879238983154295,20.123137425842284,29.474138983154297,19.766547425842283Q30.069038983154297,19.409957425842286,30.6807389831543,19.082987425842283Q31.292438983154298,18.756027425842284,31.919438983154297,18.459467425842284Q32.546438983154296,18.162907425842285,33.1872389831543,17.897467425842287Q33.8280389831543,17.632027425842285,34.48103898315429,17.398357425842285Q35.1341389831543,17.164687425842285,35.79783898315429,16.963337425842283Q36.4615389831543,16.761997425842285,37.134338983154294,16.593459425842283Q37.807138983154296,16.424923425842284,38.4874389831543,16.289605425842286Q39.167738983154294,16.154288425842285,39.8537389831543,16.052513425842285Q40.5398389831543,15.950738425842285,41.2301389831543,15.882752425842286Q41.920338983154295,15.814765725842285,42.6131389831543,15.780731625842286Q43.305838983154295,15.746697425842285,43.99943898315429,15.746697425842285Q44.693038983154295,15.746697425842285,45.3858389831543,15.780731625842286Q46.078538983154296,15.814765725842285,46.768838983154296,15.882752425842286Q47.4590389831543,15.950738425842285,48.1451389831543,16.052513425842285Q48.8312389831543,16.154288425842285,49.5114389831543,16.289605425842286Q50.191738983154295,16.424923425842284,50.8645389831543,16.593459425842283Q51.5373389831543,16.761997425842285,52.2010389831543,16.963337425842283Q52.8648389831543,17.164687425842285,53.5178389831543,17.398357425842285Q54.170938983154294,17.632027425842285,54.811638983154296,17.897467425842287Q55.452438983154295,18.162907425842285,56.0794389831543,18.459467425842284Q56.7064389831543,18.756027425842284,57.3181389831543,19.082987425842283Q57.9298389831543,19.409957425842286,58.5247389831543,19.766547425842283Q59.119638983154296,20.123137425842284,59.6963389831543,20.508497425842286Q60.273038983154294,20.893847425842285,60.8301389831543,21.307037425842285Q61.3872389831543,21.720217425842286,61.9234389831543,22.160247425842286Q62.459538983154296,22.600277425842286,62.9735389831543,23.066077425842284Q63.4874389831543,23.531887425842285,63.9778389831543,24.022347425842284Q64.4683389831543,24.512807425842283,64.9341389831543,25.026737425842285Q65.3998389831543,25.540677425842283,65.8399389831543,26.076897425842283Q66.2799389831543,26.612997425842288,66.6930389831543,27.170097425842286Q67.1062389831543,27.727297425842288,67.4915389831543,28.303997425842283Q67.8769389831543,28.880697425842285,68.23343898315429,29.475597425842285Q68.5900389831543,30.070597425842287,68.9170389831543,30.682297425842286Q69.2439389831543,31.293997425842285,69.5405389831543,31.920997425842284Q69.83703898315429,32.548097425842286,70.10253898315429,33.188897425842285Q70.36793898315429,33.829697425842284,70.6015389831543,34.482797425842286Q70.8352389831543,35.135797425842284,71.03663898315429,35.799597425842286Q71.2379389831543,36.463297425842285,71.40643898315429,37.13619742584228Q71.5749389831543,37.808997425842286,71.71033898315429,38.48929742584228Q71.84563898315429,39.169597425842284,71.9473389831543,39.85569742584229Q72.04913898315431,40.54179742584229,72.11713898315429,41.232097425842284Q72.1851389831543,41.922397425842284,72.2191389831543,42.615097425842286Q72.25323898315429,43.307897425842285,72.25323898315429,44.00149742584229Z" fill="#0061AE" fill-opacity="1"/></g><g><path d="M34.95000061187744,71.0929514099121L34.39990061187744,72.60195140991212L34.29350061187744,72.89385140991212L34.010000611877444,73.67155140991211C37.45490061187744,75.14585140991211,40.89340061187744,75.9045514099121,44.30870061187744,75.9130514099121C47.66820061187744,75.91935140991211,51.00450061187744,75.19855140991211,54.30290061187744,73.71585140991212L53.99830061187744,72.79375140991212L53.89610061187744,72.48715140991212L53.39560061187744,70.9738514099121C51.95290061187744,71.47865140991212,50.459700611877444,71.87065140991211,48.92750061187744,72.13935140991211C47.325700611877444,72.4207514099121,45.676500611877444,72.56825140991211,43.99790061187744,72.56825140991211C42.38560061187744,72.56825140991211,40.801700611877436,72.43125140991211,39.25580061187744,72.1709514099121C37.77940061187744,71.9222514099121,36.33890061187744,71.55975140991211,34.947900611877444,71.09085140991212L34.95000061187744,71.0929514099121ZM34.46630061187744,70.5903514099121L34.57280061187744,70.30055140991212L34.86470061187744,70.4027514099121C36.31360061187744,70.9085514099121,37.817400611877446,71.29635140991212,39.36220061187744,71.55555140991211C40.86810061187744,71.8095514099121,42.419300611877446,71.94125140991211,44.00000061187744,71.94125140991211C45.64500061187744,71.94125140991211,47.25510061187744,71.7989514099121,48.82320061187744,71.52395140991212C50.43130061187744,71.2426514099121,51.99090061187744,70.8231514099121,53.48940061187744,70.2794514099121L53.79390061187744,70.16875140991212L53.89610061187744,70.47545140991211L54.39460061187744,71.98445140991211C60.09770061187744,69.8558514099121,64.98520061187745,66.02735140991211,68.43420061187744,61.12305140991211C71.84640061187744,56.27135140991211,73.85390061187744,50.36385140991211,73.85390061187744,44.00215140991211C73.85390061187744,27.55835140991211,60.44230061187744,14.148831409912109,44.00210061187744,14.148831409912109C27.559800611877442,14.148831409912109,14.150284611877442,27.560451409912112,14.150284611877442,44.00215140991211C14.150284611877442,50.42075140991211,16.19359061187744,56.37575140991211,19.661620611877442,61.25265140991211C23.170730611877442,66.18225140991211,28.13510061187744,70.0107514099121,33.91830061187744,72.0972514099121L34.46630061187744,70.5903514099121ZM54.59060061187744,72.5809514099121L54.98890061187744,73.7864514099121L55.07640061187744,74.05305140991211L54.82030061187744,74.1700514099121C51.354400611877445,75.76965140991211,47.84310061187744,76.54735140991211,44.30870061187744,76.54105140991211C40.72160061187744,76.5347514099121,37.10820061187744,75.7170514099121,33.49050061187744,74.1289514099121L33.21970061187744,74.0098514099121L33.31980061187744,73.73275140991211L33.70130061187744,72.68525140991211C27.79580061187744,70.5544514099121,22.72815061187744,66.64705140991211,19.146310611877443,61.61515140991211C15.60347061187744,56.63595140991211,13.515900611877441,50.55355140991211,13.515900611877441,44.00215140991211C13.515900611877441,27.21325140991211,27.207800611877442,13.52035140991211,43.99580061187744,13.52035140991211C60.78370061187744,13.52035140991211,74.47560061187744,27.21325140991211,74.47560061187744,44.00215140991211C74.47560061187744,50.49555140991211,72.42600061187744,56.52955140991211,68.94110061187743,61.48235140991211C65.41510061187745,66.4952514099121,60.41700061187744,70.40695140991211,54.586400611877444,72.57885140991212L54.59060061187744,72.5809514099121Z" fill="#0061AE" fill-opacity="1"/></g><g><path d="M37.704649732910156,72.28901268818359L37.29787473291016,74.2954328881836L37.04181073291016,74.24485288818359L37.32949373291016,72.8274978881836L36.850013732910156,72.72950288818359L36.89112603291016,72.5292798881836C37.214646732910154,72.61042388818359,37.423295732910155,72.51663488818359,37.51707173291015,72.2500228881836L37.70675973291016,72.28901268818359L37.704649732910156,72.28901268818359Z" fill-rule="evenodd" fill="#0061AE" fill-opacity="1"/></g><g><path d="M41.432925532470705,74.77280819824219L41.6816325324707,74.74750819824219C41.7269375324707,74.96458819824218,41.854442532470706,75.06259819824218,42.065200532470705,75.04151819824219C42.323404532470704,75.03097819824218,42.4593145324707,74.7622581982422,42.4761945324707,74.23430819824219L42.465644532470705,74.23641819824219C42.3982145324707,74.39553819824219,42.250668532470705,74.48932819824219,42.0251685324707,74.5188381982422C41.6162845324707,74.54518819824219,41.3812912324707,74.34706819824218,41.324408172470704,73.92660919824219C41.3033117324707,73.47980319824218,41.497218532470704,73.22372629824218,41.9102965324707,73.16050138824218C42.369764532470704,73.1215115982422,42.6405945324707,73.41130419824219,42.7175145324707,74.02882419824219C42.7617645324707,74.77280819824219,42.5510145324707,75.17323819824219,42.0852425324707,75.23751819824219C41.705867532470705,75.26069819824218,41.487725532470705,75.10684819824219,41.432925532470705,74.77701819824219L41.432925532470705,74.77280819824219ZM42.0462395324707,74.28699819824219C42.2960005324707,74.25538819824219,42.4066245324707,74.08678819824219,42.38555453247071,73.7843501982422C42.342364532470704,73.50720319824218,42.1916765324707,73.37757519824218,41.933476532470706,73.3944401982422C41.677412532470704,73.43448419824219,41.5625655324707,73.5988821982422,41.581526532470704,73.88656519824218C41.605762532470706,74.18899819824219,41.758556532470706,74.32283819824218,42.044129532470706,74.28489819824219L42.0462395324707,74.28699819824219Z" fill-rule="evenodd" fill="#0061AE" fill-opacity="1"/></g><g><path d="M47.36577828125,74.2185167578125C47.28673828125,73.6863467578125,47.10865728125,73.4344897578125,46.82941328125,73.4650537578125C46.54381428125,73.5029887578125,46.44159928125,73.7927807578125,46.52063428125,74.3344317578125C46.59231028125,74.8750217578125,46.76723028125,75.1268817578125,47.04647428125,75.0899917578125C47.32574828125,75.0520517578125,47.43217828125,74.7622617578125,47.36577828125,74.2206137578125L47.36577828125,74.2185167578125ZM47.63660828125,74.1826787578125C47.70298828125,74.8476317578125,47.51542828125,75.21645175781251,47.07387428125,75.2902117578125C46.61443528125,75.3376417578125,46.33516528125,75.0309817578125,46.23927988125,74.3702517578125C46.15391658125,73.6842377578125,46.34149428125,73.3027656578125,46.79673928125,73.2258409478125C47.24248828125,73.1815770578125,47.52384828125,73.5008787578125,47.63660828125,74.1805687578125L47.63660828125,74.1826787578125Z" fill-rule="evenodd" fill="#0061AE" fill-opacity="1"/></g><g><path d="M51.71160790527344,72.62517905810547L51.46923190527344,72.68524005810546C51.377565905273435,72.50399105810547,51.239512905273436,72.43338205810547,51.054044905273436,72.47026205810546C50.76214190527344,72.55668005810547,50.66414690527344,72.83803405810546,50.75792290527344,73.31540205810546L50.772690905273436,73.32384205810547C50.81483190527344,73.14891005810547,50.94971990527344,73.02983205810547,51.17735590527344,72.96660705810547C51.592547905273435,72.90232705810547,51.852827905273436,73.06249205810546,51.961367905273434,73.44081205810546C52.00772790527344,73.63259205810547,51.982437905273436,73.81384205810546,51.88444790527344,73.98667205810547C51.807517905273436,74.12261205810547,51.65680790527344,74.21851205810547,51.429199905273435,74.27435205810546C51.19842590527344,74.32283205810546,51.00240990527344,74.27646205810547,50.845395905273435,74.13842205810546C50.70209490527344,74.00142205810548,50.597770905273435,73.78435205810547,50.533477905273436,73.48823205810547C50.376464105273435,72.78534505810546,50.53136830527344,72.36699305810546,51.00029990527344,72.23737855810546C51.35860490527344,72.17415365810547,51.59886790527344,72.30165825810546,51.71688790527344,72.62307005810547L51.71160790527344,72.62517905810547ZM50.89386590527344,73.72849205810547C50.979229905273435,74.01196205810547,51.15625890527344,74.12472205810546,51.42287190527344,74.06781205810547C51.66313790527344,73.99300205810547,51.75482790527344,73.80964205810547,51.696867905273436,73.51984205810547C51.60728790527344,73.25429205810546,51.44185790527344,73.14469105810547,51.196316905273434,73.19843605810547C50.93497890527344,73.27958205810548,50.83487390527344,73.45661205810546,50.89386590527344,73.72849205810547Z" fill-rule="evenodd" fill="#0061AE" fill-opacity="1"/></g><g><path d="M44,0C68.234,0,88,19.767,88,44.0021C88,68.2361,68.234,88.0032,44,88.0032C19.766,88.0032,0,68.2361,0,44.0021C0,19.767,19.766,0,44,0ZM44,1.79608C20.7544,1.79608,1.79672,20.7556,1.79672,44.0021C1.79672,67.2477,20.7544,86.2075,44,86.2075C67.2456,86.2075,86.2033,67.2477,86.2033,44.0021C86.2033,20.7556,67.2456,1.79608,44,1.79608Z" fill="#0061AE" fill-opacity="1"/></g><g><path d="M9.760199546813965,61.62571068115234L10.982609546813965,60.920720681152346L11.059529546813964,61.048220681152344C10.442012546813965,61.61938068115234,10.281833546813965,62.178950681152344,10.582161546813964,62.72692068115234C10.865629546813965,63.137900681152345,11.212329546813965,63.24854068115234,11.624359546813965,63.06097068115234C11.962629546813965,62.86497068115234,12.035339546813965,62.42870068115234,11.845659546813964,61.75111068115234C11.647539546813965,60.97763068115234,11.772949546813965,60.46232068115234,12.225019546813964,60.20204068115234C12.786699546813965,59.92700068115234,13.289349546813964,60.087170681152344,13.737209546813965,60.68362068115234C13.847859546813964,60.866970681152345,13.893179546813965,61.103020681152344,13.866829546813964,61.397030681152344C13.873149546813965,61.492930681152345,13.888959546813965,61.55721068115234,13.910029546813965,61.593040681152345C13.931109546813964,61.62992068115234,14.020679546813966,61.63625068115235,14.176639546813965,61.613070681152344C14.189289546813965,61.606740681152345,14.204039546813965,61.604630681152344,14.225109546813965,61.61096068115234L14.325229546813965,61.774290681152344L13.215589546813964,62.41605068115234L13.138659546813965,62.287480681152346C13.679259546813965,61.727930681152344,13.824679546813964,61.227370681152344,13.568599546813964,60.78162068115235C13.305149546813965,60.37486068115234,12.991129546813966,60.27685068115235,12.627569546813966,60.48761068115235C12.339889546813964,60.654110681152346,12.277709546813965,61.06720068115234,12.442109546813965,61.730040681152346C12.654969546813964,62.526690681152346,12.554859546813965,63.04411068115235,12.141779546813964,63.28332068115235C11.455759546813965,63.63001068115234,10.884599546813964,63.45930068115234,10.430409546813966,62.76696068115234C10.319768546813965,62.586770681152345,10.245995546813965,62.366520681152345,10.207005546813965,62.10729068115234C10.198580546813965,61.980840681152344,10.181715546813965,61.900750681152346,10.160645546813965,61.86387068115234C10.109010546813964,61.77851068115234,10.000466546813964,61.74057068115234,9.838179046813964,61.75322068115234L9.762309186813965,61.62571068115234L9.760199546813965,61.62571068115234ZM16.106139546813964,64.23911068115234C16.666749546813964,65.17065068115234,16.483389546813964,66.02950068115234,15.554999546813965,66.81563068115234C14.491719546813965,67.41840068115235,13.609699546813964,67.30563068115234,12.906819546813965,66.47209068115234C12.323029546813965,65.55845068115235,12.498999546813964,64.71437068115235,13.434769546813964,63.938780681152345C14.489609546813965,63.32548068115234,15.380079546813965,63.42558068115234,16.104029546813965,64.23911068115234L16.106139546813964,64.23911068115234ZM15.947019546813966,64.35081068115234C15.490719546813965,63.730130681152346,14.781519546813964,63.76490068115234,13.818349546813966,64.45514068115234C12.825689546813965,65.13062068115235,12.565389546813964,65.77343068115235,13.032229546813966,66.38462068115234C13.476919546813965,67.01375068115235,14.191399546813965,66.98318068115235,15.175629546813965,66.29716068115235C16.157769546813967,65.61114068115235,16.414889546813967,64.96200068115235,15.947019546813966,64.35081068115234ZM18.764849546813963,67.55434068115234L18.620479546813964,67.68506068115235C18.355979546813963,67.38467068115234,18.147329546813964,67.33092068115235,17.993469546813962,67.52483068115234L16.335859546813964,69.00966068115234C15.886939546813965,69.41216068115234,15.867979546813965,69.83266068115235,16.281059546813964,70.26886068115235C16.773189546813967,70.78846068115234,17.290599546813965,70.81476068115234,17.838569546813964,70.34166068115235L19.237999546813967,69.08866068115235C19.525689546813965,68.86946068115235,19.521469546813965,68.61336068115234,19.225359546813962,68.32356068115234L19.369729546813964,68.19396068115235L20.284399546813965,69.15926068115235L20.138999546813963,69.28886068115234C19.863999546813965,68.99696068115234,19.606829546813962,68.97796068115234,19.369729546813964,69.22876068115235L17.938669546813966,70.51236068115234C17.340129546813966,71.01076068115235,16.735249546813964,70.94856068115234,16.122989546813965,70.32476068115234C15.494939546813965,69.64086068115235,15.441189546813966,69.06126068115235,15.968089546813964,68.59236068115234L17.609889546813964,67.12228068115235C17.813279546813966,66.97896068115234,17.776399546813963,66.77242068115234,17.499249546813964,66.50265068115235L17.644669546813965,66.37198068115234L18.766959546813965,67.55644068115234L18.764849546813963,67.55434068115234ZM22.431999546813962,72.67046068115235L22.299299546813963,72.55666068115235C22.722899546813963,71.93916068115234,22.680699546813965,71.41966068115235,22.169599546813963,71.00236068115234L20.130599546813965,73.25216068115235C19.915599546813965,73.42396068115235,19.968299546813967,73.63256068115234,20.294999546813965,73.87186068115234L20.164299546813965,74.01406068115234L18.922919546813965,72.95076068115235L19.052539546813964,72.80856068115234C19.327569546813965,73.08146068115235,19.546759546813966,73.10676068115234,19.706939546813963,72.88756068115234L21.745999546813962,70.63776068115234C21.242299546813967,70.18776068115234,20.707999546813966,70.21306068115234,20.141099546813965,70.71046068115234L20.011499546813965,70.59876068115234L20.895599546813965,69.65556068115234L22.090599546813962,70.67566068115235L23.283499546813964,71.69676068115234L22.434099546813965,72.66836068115234L22.431999546813962,72.67046068115235ZM23.095899546813964,76.17646068115235L21.779699546813966,75.23546068115235L21.896699546813963,75.08156068115234C22.171799546813965,75.31446068115234,22.380399546813965,75.31236068115234,22.520599546813965,75.07946068115234L24.144399546813965,72.93816068115234C24.315199546813965,72.76216068115234,24.250899546813965,72.57456068115235,23.948399546813967,72.37646068115234L24.065399546813964,72.22266068115235L25.364699546813966,73.15206068115235L25.247799546813965,73.30486068115235C24.928499546813967,73.06036068115235,24.713499546813964,73.04456068115235,24.600699546813964,73.26486068115234L23.898899546813965,74.18896068115234L25.232999546813964,75.14166068115235L25.933799546813965,74.21636068115234C26.104499546813965,74.04046068115234,26.033899546813966,73.84866068115234,25.720899546813964,73.64206068115234L25.837899546813965,73.48826068115234L27.120399546813964,74.40396068115234L27.003399546813966,74.55786068115235C26.719899546813966,74.33866068115235,26.515499546813963,74.33236068115235,26.392199546813966,74.54306068115234L24.768299546813964,76.68436068115234C24.568099546813965,76.87616068115234,24.636599546813965,77.07426068115234,24.968499546813966,77.27656068115235L24.851599546813965,77.42946068115234L23.552199546813966,76.50106068115234L23.669199546813964,76.34716068115235C23.956899546813965,76.58846068115234,24.169699546813966,76.59056068115234,24.310999546813967,76.35766068115234L25.116099546813963,75.29656068115234L23.781999546813964,74.34496068115234L22.976899546813964,75.40616068115234C22.778699546813964,75.59796068115234,22.855699546813966,75.80236068115235,23.212899546813965,76.02156068115235L23.095899546813964,76.17436068115234L23.095899546813964,76.17646068115235ZM27.587199546813967,74.86026068115234L27.674599546813965,74.68956068115234L28.925499546813963,75.29026068115235L28.837999546813965,75.46096068115234C28.565099546813965,75.32916068115235,28.411199546813965,75.32706068115235,28.377499546813965,75.45466068115235C28.333299546813965,75.54416068115235,28.306899546813966,75.65696068115234,28.300599546813967,75.79816068115234L27.923299546813965,77.86886068115234L29.289099546813965,76.48626068115234L29.376499546813964,75.98256068115234C29.428199546813964,75.81706068115234,29.334399546813966,75.68436068115234,29.093099546813963,75.58636068115234L29.180499546813966,75.41666068115234L30.469299546813964,76.03626068115234L30.381799546813966,76.20706068115234C30.094199546813964,76.06796068115234,29.932899546813964,76.07006068115234,29.893899546813966,76.20916068115234C29.874999546813964,76.24706068115235,29.849699546813966,76.33026068115234,29.815999546813966,76.45576068115234C29.815999546813966,76.54946068115234,29.813799546813964,76.62006068115234,29.807499546813965,76.66436068115235L29.449199546813965,78.65076068115235L29.468199546813963,78.65916068115234L30.891899546813963,77.16066068115234C30.904499546813966,77.13536068115235,30.927699546813965,77.10796068115235,30.959299546813966,77.07636068115235C31.055199546813967,76.98046068115235,31.121599546813965,76.90146068115234,31.153199546813966,76.83716068115234C31.257499546813964,76.69706068115235,31.148999546813965,76.55796068115234,30.829699546813966,76.42196068115234L30.917199546813965,76.25126068115235L32.012099546813964,76.77816068115234L31.924599546813965,76.94786068115235C31.690599546813964,76.80346068115234,31.436699546813966,76.88886068115235,31.161699546813963,77.19966068115235L28.929699546813964,79.47056068115234L28.773799546813965,79.39576068115234L29.207899546813966,76.87826068115234L27.384899546813966,78.72876068115235L27.207799546813966,78.64446068115234L27.797899546813966,75.29866068115234C27.849599546813966,75.07106068115235,27.776899546813965,74.92666068115234,27.582999546813966,74.86446068115234L27.587199546813967,74.86026068115234ZM34.97949954681397,80.12926068115235L34.549599546813965,81.46856068115234L31.409299546813966,80.57816068115234L31.464099546813966,80.39586068115234C31.818199546813965,80.52546068115234,32.022599546813964,80.45696068115234,32.072099546813966,80.19036068115234L32.84769954681396,77.64226068115235C32.944699546813965,77.41886068115234,32.81079954681397,77.26396068115234,32.44199954681396,77.17436068115234L32.49789954681397,76.99106068115235L35.53379954681397,77.85196068115235L35.183999546813965,79.14706068115234L35.01849954681396,79.09966068115234C35.043799546813965,78.26716068115235,34.73079954681397,77.77926068115235,34.07639954681396,77.63806068115234C33.682299546813965,77.54216068115234,33.452599546813964,77.59586068115235,33.39039954681397,77.79826068115234L33.049999546813964,78.91846068115234C33.60959954681397,79.12176068115235,33.97419954681396,78.99746068115235,34.14279954681396,78.54226068115234L34.289299546813965,78.58226068115235L33.85509954681396,80.01016068115234L33.70759954681397,79.96906068115234C33.816099546813966,79.51386068115235,33.58009954681397,79.21666068115235,33.00049954681397,79.08276068115234L32.57899954681396,80.46746068115235C32.514699546813965,80.62766068115235,32.637999546813965,80.74256068115234,32.94989954681397,80.81736068115234C33.767699546813965,81.12186068115234,34.39359954681397,80.87846068115235,34.83089954681397,80.08816068115235L34.97739954681396,80.12926068115235L34.97949954681397,80.12926068115235ZM36.10709954681397,81.85636068115234L36.364199546813964,80.50016068115235L36.515999546813966,80.52546068115234C36.55179954681397,81.35166068115234,36.88269954681397,81.83326068115234,37.504399546813964,81.97226068115233C38.011299546813966,82.03136068115234,38.32639954681396,81.85006068115234,38.452799546813964,81.42646068115235C38.52449954681396,81.04916068115234,38.232599546813965,80.71306068115234,37.58139954681397,80.41056068115235C36.84999954681396,80.05226068115235,36.53279954681396,79.62236068115234,36.62869954681396,79.12176068115235C36.78679954681397,78.52856068115234,37.241999546813965,78.26506068115235,38.000799546813965,78.32616068115234C38.215699546813966,78.36516068115235,38.42859954681396,78.48636068115235,38.639299546813966,78.69716068115234C38.71839954681397,78.75506068115234,38.778399546813965,78.78666068115234,38.820599546813966,78.79306068115234C38.863799546813965,78.80146068115235,38.92699954681396,78.74036068115234,39.01029954681397,78.60966068115235C39.01239954681397,78.59486068115234,39.02289954681396,78.58436068115235,39.040799546813965,78.57176068115234L39.233699546813966,78.60546068115235L38.99979954681396,79.83736068115235L38.84909954681396,79.81206068115235C38.77209954681396,79.04906068115234,38.478099546813965,78.61596068115234,37.96489954681397,78.51166068115234C37.474899546813965,78.43996068115234,37.19139954681397,78.60546068115235,37.11449954681396,79.01006068115234C37.05229954681397,79.33046068115235,37.33369954681396,79.64556068115235,37.956499546813966,79.95636068115235C38.714199546813965,80.32096068115234,39.05139954681397,80.73196068115234,38.96389954681396,81.19036068115234C38.78059954681396,81.92066068115234,38.27159954681396,82.22736068115235,37.435899546813964,82.10826068115234C37.22089954681397,82.07036068115235,37.00179954681396,81.98286068115235,36.778399546813965,81.84166068115235C36.67299954681397,81.76786068115234,36.60129954681396,81.72466068115234,36.55809954681396,81.71836068115235C36.457999546813966,81.70146068115234,36.35789954681397,81.75416068115234,36.25989954681397,81.88276068115235L36.10919954681397,81.85636068115234L36.10709954681397,81.85636068115234ZM43.482599546813965,80.28416068115234L43.30759954681397,80.27146068115235C43.26549954681396,79.53066068115234,42.90929954681396,79.14286068115234,42.24019954681396,79.11016068115234L41.999899546813964,82.09556068115234C41.93349954681396,82.36006068115235,42.106299546813965,82.49186068115235,42.51519954681397,82.49396068115234L42.500399546813966,82.68366068115235L40.847099546813965,82.56456068115234L40.86179954681397,82.37486068115234C41.25169954681397,82.42966068115234,41.44349954681397,82.32326068115235,41.43499954681397,82.05446068115234L41.67529954681396,79.07016068115234C40.99559954681396,79.00586068115234,40.580399546813965,79.33886068115234,40.43609954681396,80.06706068115234L40.261099546813966,80.05446068115234L40.38439954681397,78.78666068115234L41.97349954681396,78.90156068115235L43.563699546813965,79.01646068115234L43.482599546813965,80.28836068115234L43.482599546813965,80.28416068115234ZM48.11609954681396,78.69076068115234L48.141399546813965,78.88046068115234C47.73459954681397,78.91846068115234,47.57019954681397,79.05536068115234,47.64509954681397,79.28936068115235L47.93899954681397,81.45596068115235C48.02019954681396,82.04396068115234,48.360599546813965,82.30006068115235,48.96859954681396,82.21886068115234C49.69049954681397,82.12296068115234,50.009799546813966,81.72466068115234,49.92859954681396,81.02176068115234L49.679899546813964,79.19136068115235C49.66309954681397,78.83836068115235,49.442799546813966,78.69506068115234,49.02759954681397,78.76566068115234L49.002299546813965,78.57596068115234L50.34489954681396,78.39676068115234L50.37009954681397,78.58646068115235C49.965499546813966,78.64026068115234,49.801099546813965,78.83416068115234,49.87589954681396,79.16606068115235L50.128799546813966,81.03656068115234C50.203699546813965,81.79736068115234,49.801099546813965,82.24416068115235,48.923299546813965,82.37486068115234C47.98439954681397,82.48546068115235,47.465899546813965,82.19786068115235,47.37209954681396,81.50966068115234L47.080199546813965,79.36416068115234C47.07809954681397,79.12176068115235,46.88209954681396,79.03436068115235,46.49429954681396,79.09966068115234L46.46899954681396,78.90996068115234L48.11609954681396,78.69286068115234L48.11609954681396,78.69076068115234ZM51.023499546813966,78.25036068115234L51.96559954681396,77.97526068115235L54.711799546813964,80.09446068115234L54.046799546813965,77.91946068115234C54.00469954681397,77.68126068115234,53.798099546813965,77.62326068115235,53.42509954681397,77.74656068115235L53.36919954681397,77.56426068115235L54.584299546813966,77.20816068115235L54.639099546813966,77.39146068115234C54.28809954681397,77.47896068115234,54.16589954681397,77.63176068115234,54.279699546813966,77.85196068115235L55.216499546813964,80.91956068115235L55.00789954681397,80.98176068115234L52.040399546813966,78.72876068115235L52.01929954681396,78.73616068115234L52.732799546813965,81.07236068115235C52.755899546813964,81.34526068115234,52.97929954681396,81.40536068115235,53.403999546813964,81.25156068115234L53.458799546813964,81.43486068115234L52.14049954681396,81.82056068115234L52.084699546813965,81.63716068115235C52.46829954681397,81.55396068115235,52.609499546813964,81.38846068115234,52.50299954681397,81.13876068115235L51.68839954681396,78.47586068115234C51.517699546813965,78.36306068115235,51.315399546813964,78.34836068115234,51.083599546813964,78.43056068115234L51.028799546813964,78.24826068115235L51.023499546813966,78.25036068115234ZM55.35559954681396,76.95836068115234L56.85729954681396,76.31766068115235L56.93629954681396,76.49256068115234C56.56959954681396,76.63276068115235,56.45679954681396,76.80556068115234,56.59489954681396,77.00786068115235L57.68349954681396,79.43686068115234C57.75409954681396,79.69826068115235,57.962699546813965,79.74146068115235,58.31259954681396,79.56226068115234L58.39059954681397,79.73726068115235L56.88889954681397,80.37796068115235L56.809899546813966,80.20406068115234C57.168199546813966,80.07966068115235,57.278799546813964,79.90266068115234,57.142899546813965,79.66876068115235L56.054299546813965,77.23976068115235C55.98159954681397,77.00786068115235,55.774999546813966,76.97416068115234,55.433599546813966,77.13536068115235L55.35559954681396,76.96046068115234L55.35559954681396,76.95836068115234ZM57.65819954681397,76.31556068115235L57.55809954681396,76.15116068115235L58.85529954681397,75.40086068115235L58.955399546813965,75.56526068115235C58.68669954681396,75.73806068115235,58.586599546813964,75.87616068115234,58.652999546813966,75.98466068115235C58.71299954681397,76.08266068115235,58.81739954681397,76.18596068115235,58.967999546813964,76.29656068115234L60.723599546813965,77.72136068115235L60.74259954681396,77.71076068115235L60.25049954681396,75.48196068115234C60.229399546813966,75.36296068115234,60.189399546813966,75.25436068115235,60.12929954681397,75.15846068115235C60.052399546813966,75.00466068115234,59.88059954681396,75.01416068115235,59.611899546813966,75.18586068115235L59.51179954681397,75.02256068115234L60.546599546813965,74.42606068115234L60.64669954681396,74.58946068115235C60.43389954681396,74.71276068115235,60.354799546813965,74.88976068115234,60.410699546813966,75.12056068115234L61.088299546813964,78.44846068115234L60.88169954681396,78.56746068115234L58.29989954681397,76.41146068115235C58.05649954681397,76.20706068115234,57.841499546813964,76.17436068115234,57.65609954681396,76.31556068115235L57.65819954681397,76.31556068115235ZM65.38769954681396,74.08046068115235L66.20759954681397,75.22906068115235L63.540399546813966,77.09116068115235L63.42559954681396,76.93516068115234C63.749099546813966,76.74336068115234,63.819699546813965,76.54526068115234,63.636299546813966,76.34506068115235L62.05139954681397,74.19326068115234C61.92919954681396,73.98246068115235,61.72049954681396,73.98876068115234,61.42019954681396,74.21636068115234L61.30529954681396,74.06146068115234L63.88289954681397,72.26056068115234L64.71859954681396,73.32176068115234L64.57529954681397,73.41976068115234C63.915599546813965,72.88966068115235,63.325499546813965,72.83176068115235,62.804899546813964,73.24686068115234C62.48139954681397,73.49036068115234,62.38339954681396,73.69896068115234,62.51089954681397,73.86966068115234L63.20739954681397,74.81596068115235C63.71959954681397,74.51036068115235,63.84289954681397,74.15526068115234,63.57839954681396,73.74856068115234L63.70169954681396,73.66106068115235L64.59109954681396,74.86656068115235L64.46669954681397,74.95406068115234C64.16429954681396,74.59156068115234,63.778599546813965,74.59156068115234,63.30969954681397,74.95406068115234L64.17269954681396,76.12586068115235C64.26229954681396,76.27236068115235,64.43299954681396,76.24916068115235,64.68589954681397,76.05526068115235C65.44039954681396,75.61686068115235,65.63219954681396,74.98776068115234,65.26129954681397,74.16796068115235L65.38559954681396,74.08046068115235L65.38769954681396,74.08046068115235ZM69.34159954681397,71.56396068115234L69.45639954681397,71.46606068115234C69.80209954681396,71.86646068115235,69.81679954681397,72.20366068115234,69.50069954681396,72.47656068115235C69.18349954681396,72.75056068115234,68.83889954681396,72.68106068115235,68.46159954681397,72.26896068115235C67.99059954681397,71.71366068115235,67.55219954681397,71.64936068115234,67.14229954681397,72.07616068115234L66.97899954681397,72.21836068115235L67.84829954681396,73.16896068115234C67.99899954681396,73.39656068115235,68.21609954681396,73.36916068115235,68.50169954681397,73.08356068115235L68.63239954681396,73.22586068115234L67.40679954681397,74.28486068115234L67.27719954681396,74.14266068115234C67.56909954681396,73.92666068115234,67.61119954681396,73.72846068115234,67.40679954681397,73.54826068115234L65.59849954681397,71.56826068115234C65.45519954681396,71.37016068115234,65.25279954681397,71.39436068115235,64.99149954681397,71.64096068115234L64.86079954681396,71.49866068115234L66.36559954681397,70.19826068115235C66.93999954681397,69.73886068115235,67.45209954681397,69.71246068115235,67.90099954681396,70.11826068115235C68.28249954681397,70.59876068115234,68.16759954681396,71.12566068115234,67.55639954681396,71.69256068115234C67.91999954681395,71.47026068115234,68.37629954681397,71.53026068115234,68.92209954681397,71.87066068115234C69.20979954681397,72.05616068115235,69.40059954681396,72.10776068115234,69.49859954681396,72.02236068115235C69.58599954681397,71.94756068115234,69.53339954681397,71.79476068115234,69.34159954681397,71.56186068115234L69.34159954681397,71.56396068115234ZM66.00949954681397,71.15726068115234L66.84829954681396,72.07616068115234C66.97899954681397,72.00346068115235,67.14019954681396,71.87066068115234,67.33829954681397,71.68096068115234C67.79459954681397,71.30476068115235,67.85039954681397,70.92756068115234,67.50269954681397,70.54816068115234C67.13599954681396,70.14776068115235,66.72919954681396,70.13926068115234,66.28239954681396,70.52706068115235C65.94519954681397,70.81896068115235,65.85349954681396,71.02976068115234,66.00949954681397,71.15936068115235L66.00949954681397,71.15726068115234ZM70.96649954681396,71.06136068115234L69.92109954681396,70.13506068115234L70.02339954681396,70.02446068115235C70.76209954681397,70.42906068115235,71.35849954681396,70.41226068115235,71.81269954681397,69.96856068115234C72.13619954681397,69.58286068115234,72.14459954681396,69.22666068115234,71.84219954681396,68.90106068115234C71.55239954681397,68.64286068115234,71.10349954681396,68.70506068115235,70.49019954681395,69.08446068115234C69.78629954681396,69.49756068115235,69.24139954681397,69.53436068115235,68.85579954681396,69.19296068115234C68.42369954681396,68.75246068115234,68.43629954681396,68.23616068115234,68.89369954681396,67.64396068115235C69.04119954681397,67.48690068115235,69.26249954681396,67.37519068115235,69.55859954681397,67.31196068115234C69.65029954681395,67.27719068115235,69.71039954681396,67.24346068115234,69.73989954681397,67.21396068115234C69.76939954681396,67.18235068115234,69.75039954681397,67.09910068115235,69.68189954681397,66.96210068115235C69.67139954681397,66.95156068115234,69.66509954681396,66.93892068115234,69.66509954681396,66.91785068115234L69.79789954681397,66.77664068115234L70.74729954681396,67.61866068115235L70.64509954681397,67.72926068115234C69.93799954681396,67.39311068115234,69.40269954681396,67.40786068115234,69.03909954681396,67.77666068115235C68.71459954681396,68.14026068115234,68.70819954681397,68.46266068115234,69.02009954681397,68.73876068115234C69.26669954681397,68.95906068115235,69.69039954681396,68.89266068115235,70.29419954681396,68.54276068115234C71.01599954681396,68.10866068115234,71.55449954681396,68.04856068115234,71.90859954681397,68.36256068115235C72.44709954681397,68.89686068115235,72.44289954681396,69.47856068115235,71.89379954681397,70.10446068115235C71.74629954681396,70.26256068115234,71.55239954681397,70.39646068115235,71.30999954681397,70.50706068115234C71.18879954681397,70.55446068115235,71.11399954681397,70.59246068115235,71.08449954681396,70.62296068115235C71.01389954681397,70.69676068115234,71.00969954681396,70.80636068115234,71.06659954681396,70.95496068115234L70.96439954681397,71.06556068115235L70.96649954681396,71.06136068115234ZM70.54499954681395,65.88829068115234L71.54189954681397,64.62058068115235L71.69779954681397,64.73649068115235C71.44599954681397,65.03261068115235,71.43329954681397,65.23495068115234,71.65669954681397,65.34770068115235L73.82329954681397,66.95156068115234C74.01509954681397,67.14757068115235,74.21959954681397,67.08645068115234,74.43769954681396,66.76400068115234L74.59259954681397,66.87886068115235L73.59569954681396,68.14656068115235L73.44079954681396,68.03166068115235C73.69369954681397,67.75666068115234,73.70219954681397,67.54801068115235,73.46609954681396,67.40786068115234L71.29949954681396,65.80293068115235C71.12039954681396,65.63538068115234,70.92219954681397,65.70282068115235,70.70299954681397,66.00315068115235L70.54709954681397,65.88829068115234L70.54499954681395,65.88829068115234ZM74.96779954681396,61.90917068115235L74.87399954681396,62.05354068115234C74.18159954681397,61.744790681152345,73.65999954681396,61.87018068115234,73.31219954681396,62.42870068115234L75.90979954681397,64.02414068115235C76.11849954681396,64.20328068115235,76.32079954681396,64.11792068115234,76.51679954681397,63.769120681152344L76.68329954681397,63.871330681152344L75.79289954681397,65.23495068115234L75.62639954681397,65.13272068115235C75.86029954681396,64.82502068115234,75.85399954681397,64.61004068115234,75.60739954681397,64.49096068115234L73.00979954681397,62.89552068115234C72.63039954681396,63.44876068115234,72.73689954681396,63.960900681152346,73.32699954681397,64.42246068115234L73.23319954681396,64.56578068115235L72.14039954681397,63.86922068115234L72.99709954681396,62.55831068115234L73.85389954681396,61.24845068115234L74.96979954681396,61.90917068115235L74.96779954681396,61.90917068115235ZM74.50719954681396,60.65201068115234L74.33339954681396,60.564540681152344L75.06789954681396,59.186180681152344L75.24279954681397,59.273640681152344C75.08049954681397,59.57608068115234,75.05939954681396,59.737310681152344,75.17639954681397,59.76577068115235C75.42399954681396,59.824770681152344,75.83919954681396,59.84269068115234,76.42509954681397,59.818460681152345C76.69169954681396,59.807920681152346,76.85299954681396,59.80159068115234,76.90459954681397,59.79528068115234C76.87189954681396,59.763660681152345,76.78339954681397,59.63721068115235,76.63799954681396,59.42223068115234C76.25019954681396,58.83000068115234,75.99939954681396,58.50438268115234,75.88139954681397,58.446418681152345C75.77709954681397,58.39583868115234,75.65379954681397,58.50647968115234,75.50519954681397,58.783630681152346L75.33029954681396,58.696170681152346L75.92459954681397,57.581260681152344L76.09949954681396,57.668720681152344C75.91829954681397,57.91424968115234,75.96679954681396,58.19350668115234,76.24179954681397,58.50647968115234L77.19649954681397,59.846910681152345L78.14599954681397,60.321120681152344C78.37039954681397,60.48128068115234,78.57489954681397,60.36011068115234,78.75819954681397,59.95755068115234L78.93209954681396,60.045020681152344L78.12699954681396,61.55510068115235L77.95209954681397,61.467640681152346C78.16599954681396,61.12726068115234,78.14389954681397,60.90913068115234,77.88459954681396,60.811120681152346L76.93409954681397,60.33691068115235L75.04889954681397,60.32321068115235C74.78859954681397,60.321120681152344,74.60729954681396,60.430700681152345,74.50719954681396,60.649900681152346L74.50719954681396,60.65201068115234Z" fill-rule="evenodd" fill="#0061AE" fill-opacity="1"/></g><g><path d="M74.8318278540039,27.586037717895508C75.27019785400391,27.71597771789551,75.71172785400391,27.873617717895506,76.1669778540039,28.223047717895508C76.5758278540039,28.49366771789551,76.70652785400391,28.78767771789551,76.7275978540039,29.17325771789551C76.16064785400391,30.014817717895507,76.4314778540039,28.91117771789551,75.86452785400391,29.08167771789551C75.63691785400391,28.86649771789551,75.30497785400391,29.235007717895506,75.1110678540039,29.36715771789551C75.2217278540039,29.49497771789551,75.2238378540039,29.757057717895506,75.3808478540039,29.786877717895507C75.53680785400391,30.01270771789551,75.6948778540039,29.90405771789551,75.90352785400391,30.100067717895506C76.0520978540039,30.34718771789551,76.2270478540039,30.60072771789551,76.3166078540039,30.884087717895508C76.2164978540039,31.10569771789551,75.82659785400391,31.30381771789551,75.5789478540039,30.99273771789551C75.33659785400391,30.464367717895506,75.1195078540039,30.15760771789551,74.8149478540039,29.78045771789551C74.37763785400391,30.093637717895508,73.7875078540039,30.483547717895508,73.28273785400391,30.622007717895507C73.0182578540039,30.694507717895508,72.8549178540039,30.64550771789551,72.5197908540039,30.451607717895506C71.9233543540039,29.799627717895508,71.86433585400391,29.51205771789551,71.8748840540039,28.76638771789551C72.12778385400391,28.706637717895507,72.11515185400391,29.927457717895507,72.6546788540039,30.019137717895507C73.15522785400391,30.362147717895507,74.20271785400391,29.92534771789551,74.17742785400391,29.63555771789551C74.1068078540039,29.441757717895506,73.9540078540039,29.12214771789551,73.5957378540039,28.979357717895507C73.13310785400391,28.425487717895507,72.9423578540039,27.75643771789551,73.45134785400391,27.675507717895506C73.7432578540039,27.61163771789551,73.82334785400391,28.044117717895507,73.93293785400391,28.250767717895506C73.9814078540039,28.483027717895506,74.19005785400391,28.851537717895507,74.4398178540039,28.964497717895508C74.68849785400391,28.88356771789551,74.93825785400391,28.802537717895508,75.1869378540039,28.721597717895506C75.4261578540039,28.781247717895507,75.66641785400391,28.842997717895507,75.90563785400391,28.902747717895508C75.8455578540039,28.734357717895506,75.7854878540039,28.56816771789551,75.72649785400391,28.399877717895507C75.4683178540039,28.242227717895506,75.21328785400391,28.08458771789551,74.9551178540039,27.924837717895507C74.91296785400391,27.813977717895508,74.8697478540039,27.70321771789551,74.8276078540039,27.590247717895508L74.8318278540039,27.586037717895508ZM77.99108785400391,28.29123771789551C78.1101578540039,28.169837717895508,78.2998478540039,28.06329771789551,78.39783785400391,28.184697717895506C78.4979678540039,28.306197717895508,78.4210178540039,28.512847717895507,78.24820785400391,28.57249771789551C78.1122678540039,28.619387717895506,77.99950785400391,28.649207717895507,77.8867678540039,28.517067717895507C77.77400785400391,28.385027717895507,77.88887785400391,28.393557717895508,77.9889778540039,28.29123771789551L77.99108785400391,28.29123771789551ZM78.2724478540039,27.743687717895508C78.14599785400391,27.79911771789551,78.19762785400391,27.564757717895507,78.0701278540039,27.475287717895508C77.89098785400391,27.349567717895507,77.9246878540039,27.085387717895507,78.0869778540039,27.102457717895508C78.2186978540039,27.117307717895507,78.3535878540039,27.20677771789551,78.4336778540039,27.362317717895507C78.51482785400391,27.51785771789551,78.3767678540039,27.696797717895507,78.2724478540039,27.743687717895508ZM79.49274785400391,27.905657717895508C79.59917785400391,28.08458771789551,79.46956785400391,28.17616771789551,79.3315078540039,28.254987717895506C79.1945178540039,28.33169771789551,79.0522378540039,28.395667717895506,79.01326785400391,28.174057717895508C78.98375785400391,27.99722771789551,78.9943078540039,27.933257717895508,79.14604785400391,27.84378771789551C79.2967278540039,27.754327717895507,79.4010478540039,27.754327717895507,79.49063785400391,27.905657717895508L79.49274785400391,27.905657717895508ZM76.2544478540039,25.651487717895506C76.6959778540039,25.299945717895508,77.21759785400391,26.203357717895507,77.5242478540039,26.066997717895507C78.2766678540039,25.81977771789551,78.8109478540039,25.304261717895507,79.50748785400391,24.96758071789551C79.8099378540039,24.954826717895507,79.8847478540039,25.078433717895507,79.7298478540039,25.33829871789551C79.5138178540039,25.58973771789551,79.1607878540039,25.72187771789551,78.94583785400391,25.97320771789551C79.3220178540039,26.567657717895507,80.2894178540039,26.47818771789551,80.8057678540039,26.525077717895506C81.1482478540039,26.542047717895507,81.36111785400391,26.733837717895508,81.22305785400391,27.168417717895508C80.7161778540039,27.179067717895506,80.4390478540039,27.185497717895508,80.04281785400391,27.162097717895506C79.75935785400391,27.21531771789551,79.60758785400391,27.41342771789551,79.7825378540039,27.63714771789551C79.87420785400391,27.76496771789551,80.06388785400391,27.83525771789551,80.15558785400391,27.963187717895508C80.63292785400391,27.920507717895507,81.0101978540039,27.70743771789551,81.4865078540039,27.66696771789551C81.68463785400391,27.701107717895507,82.0302878540039,27.98015771789551,81.63824785400391,28.36584771789551C81.36322785400391,28.619387717895506,80.6181878540039,28.254987717895506,80.25568785400391,28.359417717895507C80.0122578540039,28.425487717895507,79.76987785400391,28.49366771789551,79.52749785400391,28.55963771789551C79.3420378540039,28.380707717895508,79.17765785400391,28.499997717895507,79.0174878540039,28.65984771789551C78.8414878540039,28.72581771789551,78.66234785400391,28.789787717895507,78.48531785400391,28.855857717895507C78.91315785400391,29.64409771789551,79.48008785400391,30.14906771789551,79.58018785400391,31.131207717895506C79.1671178540039,31.904577717895506,78.8130578540039,31.729857717895506,78.5559078540039,31.65535771789551C78.0058378540039,31.052377717895506,77.4494278540039,29.98931771789551,78.4315678540039,30.879877717895507C78.7582578540039,31.084307717895506,78.9605778540039,31.028987717895507,78.93422785400391,30.64550771789551C78.73190785400391,29.961597717895508,78.25559785400391,29.273367717895507,77.8456578540039,28.913397717895506C77.04056785400391,27.956757717895506,75.38717785400391,26.501577717895508,73.9540078540039,26.073317717895506C73.23320785400391,25.887957717895507,72.58408385400391,26.177747717895507,71.9296832540039,26.105357717895508C71.86433585400391,25.78362771789551,71.6662358540039,25.391624717895507,72.30061985400391,24.95914871789551C72.74637185400391,24.673568717895506,73.46189785400391,24.686426717895507,73.9771878540039,24.573457717895508C74.32916785400391,24.835535717895507,73.3849778540039,25.05493771789551,73.46400785400391,25.489626717895508C74.84867785400391,25.996707717895507,76.5315778540039,27.306887717895506,77.2091578540039,27.833157717895507C77.8203678540039,28.22948771789551,77.6633478540039,27.897117717895508,77.87410785400391,27.771397717895507C77.84143785400391,27.58814771789551,77.6454478540039,27.50078771789551,77.51160785400391,27.164207717895508C77.6391178540039,27.047027717895507,77.84143785400391,26.863767717895506,78.04799785400391,26.83394771789551C78.46002785400391,26.678407717895507,78.48742785400391,27.274957717895507,79.0922978540039,27.151457717895507C79.5633378540039,27.230277717895508,80.0491478540039,26.887267717895508,79.5138178540039,26.75511771789551C79.0522378540039,26.461117717895508,78.71714785400391,26.20546771789551,78.0869778540039,26.167107717895508C77.7782278540039,26.182067717895507,77.57168785400391,26.546367717895507,77.1838678540039,26.584727717895507C76.75921785400391,26.708227717895507,76.78764785400391,26.260897717895507,76.2734078540039,26.522867717895508C75.8624378540039,26.450467717895506,76.04579785400391,25.80069771789551,76.2544478540039,25.651487717895506Z" fill-rule="evenodd" fill="#0061AE" fill-opacity="1"/></g><g><path d="M58.60027844116211,13.518140247192383C58.99861844116211,13.213490247192382,59.35161844116211,14.059360247192384,59.55607844116211,14.779420247192384C59.64351844116211,15.312110247192383,59.14507844116211,15.493150247192382,58.94697844116211,15.386620247192383C58.70671844116211,14.811460247192382,58.18822844116211,14.359700247192382,58.602388441162105,13.518140247192383L58.60027844116211,13.518140247192383ZM55.81300844116211,9.968760247192384C55.92785844116211,10.313880247192383,55.93839844116211,10.827390247192383,56.48003844116211,10.865640247192383C57.29777844116211,11.014860247192383,57.82678844116211,10.999890247192383,58.06916844116211,10.644130247192383C58.50647844116211,9.713110247192382,58.73411844116211,8.969554247192383,59.03020844116211,7.991633147192383C59.29262844116211,7.831776247192383,59.72888844116211,8.835303247192384,59.76050844116211,9.278420247192383C59.79736844116211,9.734400247192383,59.60770844116211,10.111440247192384,59.31580844116211,10.452340247192383C59.99760844116211,10.529060247192383,60.62355844116211,10.699460247192382,61.12621844116211,11.083030247192383C61.269518441162106,11.342900247192382,61.18417844116211,11.521830247192383,60.86698844116211,11.619840247192382C60.39805844116211,11.481370247192382,59.55185844116211,11.212970247192382,59.08289844116211,11.074500247192383C58.58234844116211,12.318710247192382,57.52014844116211,13.164480247192383,56.30511844116211,13.859040247192382C55.55585844116211,14.129650247192384,54.84138944116211,14.078540247192382,54.58005144116211,13.880430247192383C54.31765844116211,13.682210247192383,54.37140284116211,13.379670247192383,55.16807544116211,13.141090247192384C56.29667844116211,12.904620247192383,57.27670844116211,12.310180247192383,57.41792844116211,11.754090247192384C57.474838441162106,11.136250247192383,55.90045844116211,12.112060247192382,55.52951844116211,11.281150247192382C55.218655441162106,10.897680247192383,55.27872844116211,10.565310247192382,55.21654544116211,10.247800247192384C55.09115044116211,9.764220247192384,55.79823844116211,9.666220247192383,55.80878844116211,9.972970247192382L55.81300844116211,9.968760247192384Z" fill-rule="evenodd" fill="#0061AE" fill-opacity="1"/></g><g><path d="M27.437542689208986,11.751986474456787C27.459682689208986,11.336576474456788,27.883312689208985,10.929606474456786,28.147802689208984,10.390586474456788C28.650462689208986,9.955896474456788,29.909752689208986,9.274206474456786,30.595772689208985,9.267776474456788C31.582112689208984,9.909116474456788,31.464092689208982,11.185256474456788,31.624272689208986,12.310176474456787C31.568412689208984,14.070006474456786,30.840242689208985,14.253266474456787,30.258542689208983,13.852716474456788C30.565202689208984,13.597066474456788,30.754892689208983,12.625466474456786,30.168972689208985,12.763946474456787C29.937152689208986,12.928016474456786,29.905532689208982,12.968476474456788,29.695822689208985,12.674476474456787C29.493492689208985,12.133356474456786,29.217402689208985,11.653986474456786,29.330162689208983,11.487796474456786C29.870762689208984,11.166076474456787,29.749572689208986,10.593026474456787,29.426052689208984,10.567416474456788C29.136252689208984,10.526946474456787,28.686302689208986,10.499236474456787,28.467102689208986,10.825176474456788C28.247922689208984,11.281146474456786,27.768442689208985,11.707196474456786,27.712582689208986,12.237776474456787C27.551362689208986,12.045986474456786,27.474442689208985,12.001206474456787,27.435452689208983,11.751986474456787L27.437542689208986,11.751986474456787ZM29.132052689208983,13.245516474456787C29.182632689208983,13.096306474456787,29.378632689208985,12.998306474456786,29.524062689208986,13.049516474456787C29.668422689208985,13.100626474456787,29.843362689208984,13.622566474456786,29.676852689208985,13.682216474456787C29.530372689208985,13.978326474456786,29.065662689208985,13.637536474456788,29.132052689208983,13.245516474456787ZM28.228942689208985,14.003936474456786C28.290072689208984,13.810036474456787,28.535602689208986,13.688636474456787,28.721072689208984,13.756826474456787C28.905482689208984,13.827106474456787,29.136252689208984,14.511016474456786,28.927612689208985,14.585626474456786C28.746362689208986,14.969096474456787,28.152022689208984,14.513126474456786,28.225792689208983,14.003936474456786L28.228942689208985,14.003936474456786ZM26.694632689208984,8.735186474456787C26.613482689208986,8.164136474456788,26.387972689208983,7.548406474456787,26.240442689208983,7.007286474456787C26.204612689208986,6.702636474456787,26.673542689208986,6.647206474456787,26.873772689208984,6.949753474456787C26.965452689208984,7.348196474456787,27.057132689208984,7.744416474456787,27.148812689208984,8.142856474456787C27.412252689208984,8.311146474456788,27.996062689208983,7.808386474456787,27.887512689208982,7.299186474456787C27.751582689208984,6.973249474456787,27.614592689208983,6.649419474456787,27.478642689208986,6.323377074456787C27.645152689208984,6.0975494744567875,28.490282689208986,6.208305174456787,28.635702689208983,7.516486474456787C28.507142689208983,8.132216474456786,28.100382689208985,8.767116474456788,27.527132689208983,9.231526474456787L27.870652689208985,10.015656474456787C28.948692689208983,9.485066474456787,30.143682689208983,8.407036474456786,31.304962689208985,9.120776474456786C32.024702689208986,9.934616474456787,32.31449268920898,12.425246474456788,31.749662689208982,14.142406474456788C31.538902689208985,14.952036474456786,30.650552689208986,14.291516474456786,30.052012689208986,14.121116474456787C29.909752689208986,14.248946474456787,29.395502689208985,14.223436474456786,29.515632689208985,14.493946474456788L30.160552689208984,15.951236474456786L29.678962689208984,16.145136474456788L29.186852689208983,15.032966474456787C28.746362689208986,15.277966474456788,28.317472689208984,15.384506474456787,28.149912689208985,15.148036474456788C27.977082689208984,14.860456474456788,27.666222689208986,14.398056474456787,27.672552689208985,14.027436474456788C27.981302689208984,13.582106474456786,28.794832689208985,13.498956474456786,28.901262689208984,12.540326474456787C28.875972689208986,12.197206474456788,29.097262689208986,11.334366474456786,28.815912689208986,11.125616474456788C28.392282689208983,11.063856474456788,28.285852689208983,12.553076474456788,27.931782689208983,12.815156474456787C27.670442689208983,13.030336474456787,27.657802689208985,12.996196474456788,27.457572689208984,13.072916474456786C27.314262689208984,12.729906474456786,27.224692689208986,11.947986474456787,26.877992689208984,12.154636474456787C26.656692689208985,12.333566474456788,26.166682689208983,12.625466474456786,26.242552689208985,13.198626474456788C26.542882689208984,13.995396474456786,26.807382689208985,14.536626474456787,27.107712689208984,15.333396474456787C26.494412689208986,15.697696474456787,25.944332689208984,15.248146474456787,25.478551689208984,14.596276474456786C25.160304689208985,14.110476474456787,24.976946389208983,13.807926474456787,24.932695389208984,13.196516474456788C24.807287589208986,12.827906474456787,25.097079689208986,12.284566474456788,25.226694689208983,11.935236474456786C25.484880689208985,11.794556474456787,25.706174689208986,11.717946474456788,25.908492689208984,12.231356474456788C26.467012689208985,12.069386474456788,27.357452689208984,11.176716474456788,26.961242689208984,10.348016474456788C26.730452689208985,9.796146474456787,26.063412689208985,9.860116474456788,25.352102689208984,9.725856474456787C25.228803689208984,9.544716474456788,25.192978689208985,9.512776474456787,25.207733689208986,9.267776474456788C25.714600689208986,9.146376474456787,26.296292689208983,9.065346474456787,26.688302689208985,8.732976474456787L26.694632689208984,8.735186474456787Z" fill-rule="evenodd" fill="#0061AE" fill-opacity="1"/></g><g><path d="M11.89204302368164,26.733844311523438C12.020603023681641,25.83263431152344,13.27671302368164,24.394525311523438,13.74144302368164,25.645164311523438C14.02701302368164,26.68905431152344,13.70561302368164,27.509324311523436,13.40106302368164,28.557524311523437C13.19452302368164,29.249974311523438,13.00273302368164,29.128574311523437,12.70662302368164,28.566064311523437C12.20079302368164,28.084584311523436,12.02902302368164,27.413424311523436,11.89204302368164,26.733844311523438ZM9.370313023681641,27.737254311523436C9.29970302368164,27.240924311523436,9.76443302368164,26.791374311523438,10.13220302368164,26.923414311523437C10.454673023681641,27.162094311523436,10.709683023681642,27.311214311523436,10.99736302368164,27.76497431152344C10.744463023681641,28.416954311523437,10.42621302368164,28.312524311523436,9.370313023681641,27.739474311523438L9.370313023681641,27.737254311523436ZM7.350193023681641,28.52771431152344C7.89606202368164,27.884264311523438,8.63055302368164,27.402784311523437,8.864493023681641,26.318334311523436C9.110033023681641,25.504484311523438,9.30181302368164,24.67789431152344,9.546303023681642,23.864047311523436C10.31556302368164,23.21849731152344,10.75921302368164,23.84055231152344,10.75921302368164,24.28377531152344C10.78029302368164,24.841964311523437,10.35034302368164,25.45126431152344,10.60535302368164,25.900814311523437C10.652783023681641,26.297044311523436,10.98682302368164,26.205464311523436,11.18073302368164,26.452584311523438C11.491593023681641,26.380184311523436,11.90258302368164,25.46402431152344,12.23347302368164,25.10825431152344C12.774063023681641,24.635214311523438,14.16084302368164,24.273028311523436,14.323133023681642,24.950614311523438C14.70249302368164,25.804924311523436,14.08708302368164,27.647794311523437,13.822583023681641,28.85364431152344C14.10184302368164,29.169044311523436,14.76362302368164,28.374384311523436,14.97332302368164,28.044124311523436C15.11769302368164,28.144234311523437,15.192513023681641,28.210304311523437,15.33688302368164,28.310414311523438C14.670893023681641,29.13490431152344,13.95008302368164,29.465164311523438,13.66873302368164,29.59941431152344C13.38736302368164,29.733564311523438,12.921583023681642,29.786884311523437,12.590693023681641,29.384234311523436C12.26087302368164,28.98157431152344,11.83724302368164,28.112304311523438,11.462093023681641,28.197444311523437C11.16598302368164,28.344454311523435,11.09326302368164,28.62571431152344,10.96153302368164,28.881354311523438C10.82665302368164,29.137014311523437,11.775063023681641,30.019134311523437,11.87518302368164,30.121354311523437C11.97528302368164,30.223574311523436,11.78981302368164,30.756264311523438,11.19338302368164,30.28964431152344C11.170183023681641,30.191644311523437,10.438863023681641,30.94795431152344,10.57795302368164,31.173884311523437C11.31455302368164,31.92165431152344,11.868853023681641,31.674544311523437,12.10069302368164,31.32942431152344C12.388373023681641,30.941624311523437,12.861523023681642,30.449504311523437,13.16818302368164,30.121354311523437C13.353653023681641,30.208714311523437,13.70983302368164,30.28111431152344,13.509613023681641,30.555934311523437C13.00273302368164,31.23353431152344,12.640233023681642,31.906794311523438,12.024813023681642,32.58638431152344C11.18283302368164,33.236154311523435,9.47886302368164,33.30011431152344,8.347088023681641,33.116864311523436C7.91502302368164,33.074284311523435,7.82334402368164,32.00047431152343,7.69584002368164,31.41456431152344C7.73588402368164,31.152484311523438,7.66527602368164,31.033204311523438,8.048857023681641,31.05880431152344C8.127891023681642,31.52321431152344,8.24908002368164,31.87054431152344,8.72223302368164,32.04736431152344C9.28074302368164,32.181624311523436,9.56843302368164,32.036724311523436,9.64430302368164,31.71711431152344C9.94462302368164,31.069454311523437,10.13220302368164,30.406824311523437,10.073203023681641,29.710164311523435C10.02999302368164,29.154084311523437,9.02888302368164,28.52771431152344,8.54520302368164,28.08880431152344C8.24697002368164,28.34877431152344,7.9940580236816405,28.740784311523438,7.71902002368164,29.092324311523438C7.63367002368164,28.934684311523437,7.435556323681641,28.685354311523437,7.350193023681641,28.52771431152344Z" fill-rule="evenodd" fill="#0061AE" fill-opacity="1"/></g><g><path d="M61.60361721496582,66.07160454406738C61.00501721496582,66.54900454406737,60.38961721496582,67.00530454406739,59.754117214965824,67.43530454406738C54.62221721496582,58.82370454406738,57.09121721496582,51.52930454406738,55.54211721496582,43.83560454406738C54.30291721496582,42.84500454406738,53.13531721496582,41.63210454406738,51.89501721496582,41.08520454406738C50.700017214965825,42.126404544067384,48.339517214965824,44.27190454406738,46.66921721496582,45.28880454406738C51.78221721496582,47.54280454406738,50.94341721496582,55.255504544067385,50.702117214965824,65.31290454406738C50.41021721496582,66.64070454406738,49.11091721496582,66.93260454406737,49.036017214965824,65.12110454406738C48.405917214965825,51.409204544067386,50.01401721496582,48.23310454406739,44.34561721496582,46.77360454406738C38.41171721496582,47.342604544067385,39.34961721496582,56.14390454406738,39.099817214965825,65.38560454406738C39.03141721496582,66.62170454406738,37.54021721496582,66.43630454406738,37.60871721496582,64.92720454406738C37.85531721496582,60.76050454406738,37.64881721496582,55.683404544067386,37.89851721496582,51.51350454406738C38.09241721496582,48.871704544067384,39.24111721496582,46.89050454406738,41.40551721496582,45.42890454406738C39.51711721496582,44.838804544067386,37.054417214965824,43.151704544067385,36.257787214965816,41.64370454406738C35.21662721496582,41.18110454406738,33.16490721496582,43.36240454406738,32.17223721496582,44.185504544067385C32.63590721496582,51.91500454406738,31.29232721496582,63.571004544067385,28.03926721496582,67.29510454406739C27.53133521496582,66.94520454406738,27.03500421496582,66.58060454406738,26.55131721496582,66.19910454406738C29.75588721496582,56.09440454406738,28.52717721496582,43.38980454406738,30.08994721496582,35.93990454406738C31.33447721496582,33.464204544067385,33.30294721496582,30.896804544067383,35.22084721496582,29.83800454406738C35.41053721496582,28.065404544067384,36.01751721496582,26.782804544067382,36.833117214965824,25.74949454406738C38.280017214965824,24.25606454406738,41.36021721496582,23.981224544067384,42.13581721496582,23.090674544067383C39.38121721496582,23.265284544067384,37.75731721496582,22.37693454406738,36.34314721496582,20.755574544067382C35.682417214965824,19.05760454406738,35.40420721496582,17.472494544067384,37.27471721496582,17.84532454406738C38.24731721496582,18.761384544067383,38.30111721496582,21.096474544067384,42.45931721496582,21.245594544067384C42.57741721496582,19.877764544067382,42.30861721496582,18.473804544067384,42.65531721496582,17.182700544067384C42.64061721496582,16.309212544067382,44.42571721496582,16.18348954406738,44.541617214965825,17.033584544067384C44.98841721496582,18.471694544067383,44.71551721496582,20.798144544067384,45.16341721496582,21.350014544067385C46.856817214965815,21.573734544067385,48.82321721496582,19.54540454406738,50.03711721496582,17.926254544067383C50.687317214965816,17.606634544067383,51.18791721496582,17.491564544067383,51.377617214965824,18.075364544067384C50.893917214965825,21.486384544067384,48.60821721496582,23.047994544067382,45.33411721496582,23.065064544067383C46.23931721496582,24.68853454406738,51.94241721496582,23.712724544067385,52.53461721496582,29.985004544067383C61.96821721496582,34.15020454406738,56.54641721496582,53.48310454406738,61.60571721496582,66.07380454406739L61.60361721496582,66.07160454406738ZM38.071317214965816,28.64280454406738C39.35171721496582,24.850394544067385,42.60261721496582,26.76370454406738,43.950417214965825,24.671464544067383C46.05591721496582,26.985304544067382,48.228817214965815,25.49595454406738,49.45121721496582,28.693904544067383C45.48901721496582,27.251604544067384,41.85241721496582,27.64150454406738,38.071317214965816,28.64280454406738ZM37.440117214965824,32.079304544067384C42.772317214965824,30.125604544067382,46.429017214965825,30.68390454406738,49.736817214965825,31.764004544067383C50.13511721496582,33.69860454406738,50.19941721496582,35.63300454406738,49.92651721496582,37.565404544067384C45.55961721496582,36.34670454406738,41.345517214965824,36.34670454406738,37.314717214965825,37.81680454406738C37.04181721496582,37.81680454406738,37.293717214965824,32.141004544067385,37.440117214965824,32.077204544067385L37.440117214965824,32.079304544067384ZM38.42011721496582,40.818604544067384C41.80811721496582,39.61930454406738,45.318317214965816,39.216504544067384,49.10031721496582,40.567804544067386C48.31631721496582,41.91560454406738,45.59541721496582,42.87030454406738,43.80191721496582,44.014704544067385C41.38761721496582,42.380304544067386,38.51601721496582,42.11370454406738,38.42011721496582,40.818604544067384ZM34.55801721496582,33.589804544067384C32.50838721496582,35.73100454406738,32.082667214965824,38.162004544067386,32.31027721496582,40.45610454406739C33.00473721496582,39.95800454406738,33.85302721496582,39.30820454406738,34.85201721496582,38.96090454406738C34.46844721496582,37.17120454406738,34.483187214965824,35.37950454406739,34.55801721496582,33.589804544067384ZM52.91611721496582,33.589804544067384C54.96571721496582,35.73100454406738,55.391517214965816,38.162004544067386,55.16381721496582,40.45610454406739C54.469417214965816,39.95800454406738,53.62111721496582,39.30820454406738,52.62211721496582,38.96090454406738C53.00571721496582,37.17120454406738,52.98991721496582,35.37950454406739,52.91611721496582,33.589804544067384ZM42.18221721496582,48.589204544067385C42.28971721496582,48.663004544067384,42.21701721496582,49.22780454406738,42.23171721496582,49.59250454406738C44.142217214965825,49.444904544067384,45.90841721496582,49.25950454406738,46.856817214965815,49.830604544067384C47.628217214965815,50.420704544067384,47.56391721496582,52.491404544067386,47.10871721496582,52.82020454406738C45.64701721496582,53.09310454406738,43.91251721496582,52.86450454406738,42.31501721496582,52.95620454406738C42.12321721496582,52.88980454406738,42.13371721496582,53.95300454406738,42.321317214965816,53.87510454406738C42.70061721496582,53.929904544067384,43.23701721496582,53.87930454406738,43.61641721496582,53.85510454406738C43.995817214965825,53.831904544067385,44.33401721496582,53.80870454406738,44.71131721496582,53.86560454406738C45.00531721496582,53.90880454406738,44.77351721496582,56.42100454406738,44.86721721496582,57.568604544067384C45.989517214965815,58.58550454406738,45.849417214965825,55.75820454406738,45.84521721496582,54.805604544067386C46.41841721496582,54.79500454406738,46.92111721496582,54.89940454406738,46.93791721496582,55.81510454406738C47.23621721496582,57.52010454406738,46.53121721496582,58.60240454406738,45.06331721496582,59.58030454406738C44.95051721496582,60.700504544067385,45.11591721496582,62.089404544067385,45.003217214965815,63.212704544067385C46.57331721496582,62.420304544067385,46.21401721496582,60.108204544067384,46.429017214965825,59.02810454406738C46.87581721496582,58.39790454406738,47.18661721496582,58.88790454406738,47.52381721496582,59.349504544067386C47.69881721496582,62.253804544067386,46.54381721496582,64.82290454406738,45.03801721496582,64.44460454406737C44.81351721496582,66.01470454406738,45.09281721496582,67.73350454406739,44.86931721496582,69.30360454406738C44.67121721496582,70.71470454406739,43.46361721496582,69.94330454406739,43.49101721496582,69.01800454406738C43.51841721496582,67.47630454406737,43.42041721496582,65.97790454406739,43.44781721496582,64.43510454406739C40.33801721496582,63.257004544067385,41.05151721496582,60.988204544067386,41.09361721496582,59.136704544067385C41.48561721496582,59.136704544067385,41.877617214965824,59.30530454406738,42.22961721496582,59.38850454406738C42.43821721496582,61.53190454406738,42.06311721496582,62.69530454406738,43.49101721496582,63.046204544067386C43.49101721496582,61.95340454406738,43.57421721496582,60.735204544067386,43.57421721496582,59.641404544067385C42.928317214965816,58.815204544067385,41.63741721496582,58.53390454406738,41.62261721496582,57.581304544067386C41.491917214965824,56.961604544067384,41.34131721496582,55.72760454406738,41.85871721496582,55.108004544067384C41.23271721496582,54.833004544067386,40.91551721496582,54.58220454406738,40.90181721496582,53.38510454406738C40.87021721496582,52.67060454406738,41.21591721496582,52.38080454406738,41.78381721496582,51.93610454406738C42.11471721496582,51.838104544067384,42.74071721496582,51.88660454406738,43.18221721496582,51.86130454406738C43.169617214965825,51.54200454406738,43.155917214965825,51.22370454406738,43.18221721496582,50.90440454406738C42.51941721496582,50.90440454406738,41.85651721496582,50.90440454406738,41.19581721496582,50.90440454406738C41.15581721496582,49.98660454406738,40.92401721496582,48.20150454406738,42.17581721496582,48.589204544067385L42.18221721496582,48.589204544067385ZM44.83461721496582,50.69160454406738L46.39001721496582,50.69160454406738C46.43321721496582,50.69160454406738,46.46691721496582,50.725304544067384,46.46691721496582,50.76850454406738L46.46691721496582,51.64000454406738C46.46691721496582,51.682104544067386,46.43321721496582,51.715904544067385,46.39001721496582,51.715904544067385L44.83461721496582,51.715904544067385C44.79241721496582,51.715904544067385,44.75871721496582,51.682104544067386,44.75871721496582,51.64000454406738L44.75871721496582,50.76850454406738C44.75871721496582,50.725304544067384,44.79241721496582,50.69160454406738,44.83461721496582,50.69160454406738ZM42.69431721496582,55.201804544067386C43.00311721496582,55.216504544067384,43.31181721496582,55.231304544067385,43.62061721496582,55.24710454406738C43.57631721496582,56.20290454406738,43.674317214965825,57.15760454406738,43.62901721496582,58.11450454406738C42.99461721496582,57.749904544067384,42.44671721496582,56.65500454406738,42.69431721496582,55.203904544067385L42.69431721496582,55.201804544067386Z" fill-rule="evenodd" fill="#FEFEFE" fill-opacity="1"/></g></g></svg>